Coordinates
version=1
nRows=16
nColumns=33
inDegrees=yes

Units are S.I. units (second, meters, Newtons, ...)
Angles are in degrees.

endheader
time	ground_thorax_rot_x	ground_thorax_rot_y	ground_thorax_rot_z	ground_thorax_tx	ground_thorax_ty	ground_thorax_tz	clav_prot_r	clav_elev_r	scapula_abduction_r	scapula_elevation_r	scapula_upward_rot_r	scapula_winging_r	shoulder_elv_r	plane_of_elev_r	axial_rot_r	elbow_flexion_r	pro_sup_r	wrist_flex_r	wrist_dev_r	clav_prot_l	clav_elev_l	scapula_abduction_l	scapula_elevation_l	scapula_upward_rot_l	scapula_winging_l	shoulder_elv_l	plane_of_elev_l	axial_rot_l	elbow_flexion_l	pro_sup_l	wrist_flex_l	wrist_dev_l
      4.93000000	     36.36156072	      3.96326324	     14.22960906	   -133.26932436	    807.63031650	     -3.62067794	     17.48878125	     40.71009763	     44.84860582	     45.00000000	    -36.17616909	   3156.27292756	  -1731.07235779	     33.87605669	     46.11054340	   1824.52697491	    177.07737218	     10.34784263	      3.19052857	      7.83812893	    -45.00000000	    -45.00000000	     45.00000000	    -13.51736889	  -2785.81064878	   -458.21103369	    137.57968639	    179.99999979	   1806.49118745	     22.94248125	     11.42707982	    -19.30907696
      4.94000000	     36.41613488	      3.81107501	     13.90445352	   -127.91005060	    805.84955382	     -3.64968680	     17.57145498	     40.92192254	     45.00000000	     45.00000000	    -35.41325871	   3156.70627707	  -1731.27213780	     33.85680323	     45.77628576	   1824.34796059	    178.72832171	     10.26833343	      2.93197279	      7.67134890	    -45.00000000	    -45.00000000	     45.00000000	    -13.31016996	  -2786.40987111	   -458.44709378	    137.56354435	    179.99999979	   1806.50838401	     23.41545715	     11.38578280	    -19.22343338
      4.95000000	     36.45445814	      3.90389453	     13.78381646	   -122.42913143	    803.93892518	     -3.66448193	     17.49222344	     41.19251073	     45.00000000	     45.00000000	    -34.67020003	   3156.98060923	  -1731.60626928	     33.96243915	     46.16851213	   1824.12482455	    179.88023872	     10.24281238	      2.66261856	      7.80097441	    -45.00000000	    -45.00000000	     45.00000000	    -13.28625244	  -2787.05583154	   -458.67563339	    137.58569340	    179.99999979	   1806.39158972	     23.77646231	     11.22281502	    -19.11295334
      4.96000000	     36.50531605	      3.75019823	     13.46519395	   -116.85150428	    801.93231013	     -3.66109644	     17.51254205	     41.32150664	     45.00000000	     45.00000000	    -33.86786443	   3157.46190920	  -1731.82686957	     34.03776352	     45.93938271	   1823.91746664	    181.00024976	     10.20816240	      2.43109077	      7.61136818	    -45.00000000	    -45.00000000	     45.00000000	    -12.68746143	  -2787.55227051	   -459.01815663	    137.60088744	    179.99999979	   1806.21400512	     24.15428663	     11.27462826	    -19.03270620
      4.97000000	     36.57967521	      3.64530030	     13.19258316	   -111.17687380	    799.86207082	     -3.63956375	     17.48184895	     41.44632064	     45.00000000	     45.00000000	    -33.02763184	   3157.88338605	  -1732.14244039	     34.05247732	     45.92576913	   1823.69793568	    181.80247243	     10.20533469	      2.21425646	      7.34485092	    -45.00000000	    -45.00000000	     45.00000000	    -12.01238729	  -2788.04093594	   -459.39795113	    137.59117959	    179.99999979	   1805.82579830	     24.58353675	     11.33441122	    -18.93836522
      4.98000000	     36.66077025	      3.30529094	     12.67455604	   -105.48741034	    797.79569531	     -3.59612101	     17.39842127	     41.50471540	     45.00000000	     45.00000000	    -31.85625548	   3158.50529442	  -1732.37551014	     33.91180155	     45.52797412	   1823.45568030	    182.46340412	     10.21313101	      1.98200731	      6.72186566	    -45.00000000	    -45.00000000	     45.00000000	    -10.99949514	  -2788.44739965	   -459.85261044	    137.47749142	    179.99999979	   1805.35229093	     25.04745953	     11.53079366	    -18.85344265
      4.99000000	     36.69391670	      3.39538128	     12.64314691	    -99.87252947	    795.80572846	     -3.52987169	     17.47244190	     41.72997262	     45.00000000	     45.00000000	    -31.39066328	   3158.96958014	  -1732.59213340	     33.95082667	     45.72135241	   1823.22121816	    182.46668870	     10.29756218	      1.66787007	      6.68508104	    -45.00000000	    -45.00000000	     45.00000000	    -10.47529481	  -2788.95204648	   -460.31851260	    137.69361686	    179.99999979	   1804.94063357	     25.35280754	     11.45381953	    -18.77288034
      5.00000000	     36.75001794	      3.39672777	     12.47046434	    -94.47603988	    793.97226321	     -3.43833353	     17.52447009	     41.88467099	     45.00000000	     45.00000000	    -30.84459155	   3159.39705437	  -1732.84187989	     34.01053225	     45.57747632	   1823.00725245	    182.02080796	     10.43529069	      1.33404134	      6.58081100	    -45.00000000	    -45.00000000	     45.00000000	     -9.99437568	  -2789.42781615	   -460.65046758	    137.75404222	    179.99999979	   1804.51783866	     25.61153361	     11.38410524	    -18.68869870
      5.01000000	     36.83861692	      3.34703726	     12.11271235	    -89.35318796	    792.33577135	     -3.32719254	     17.32086643	     42.16309933	     45.00000000	     45.00000000	    -29.99373358	   3159.73648557	  -1733.24593189	     34.00214977	     45.67917790	   1822.79558727	    180.95966775	     10.66155478	      0.96802543	      6.42898236	    -45.00000000	    -45.00000000	     45.00000000	     -9.59096683	  -2789.97280325	   -460.97082618	    137.81654564	    179.99999979	   1804.24190547	     25.77897808	     11.30929848	    -18.62786282
      5.02000000	     36.92910796	      3.42509936	     11.90721228	    -84.53310694	    790.91792084	     -3.20330011	     17.36213951	     42.24811515	     45.00000000	     45.00000000	    -29.56174899	   3160.04026092	  -1733.54171178	     34.12149931	     45.43723702	   1822.55532130	    179.39665876	     10.96843971	      0.61215757	      6.49664689	    -45.00000000	    -45.00000000	     45.00000000	     -9.35160695	  -2790.48107762	   -461.29362699	    137.92471897	    179.99999979	   1803.98716375	     25.84322354	     11.17585366	    -18.57623260
      5.03000000	     37.10500186	      2.66638413	     10.73597803	    -80.03974571	    789.73667694	     -3.07233376	     16.71627312	     42.22869491	     45.00000000	     44.61172552	    -27.31204252	   3160.23302578	  -1733.77976379	     33.88522376	     44.51007840	   1822.46065598	    175.97855226	     11.51413839	      0.20213102	      5.52987376	    -45.00000000	    -45.00000000	     45.00000000	     -8.19366565	  -2790.90013052	   -461.41167759	    137.59576886	    179.99999979	   1803.61760193	     26.04430037	     11.32088416	    -18.49336784
      5.04000000	     37.10889112	      2.62291741	     10.45889470	    -75.91398330	    788.80694967	     -2.94044195	     16.37618172	     41.96993338	     45.00000000	     44.39624055	    -27.32412752	   3160.61731060	  -1732.26156643	     35.05740498	      8.95111892	   1809.72476686	     29.90403194	     18.22908232	     13.32383645	      5.49052596	    -45.00000000	    -45.00000000	     45.00000000	     -7.62448254	  -2791.26396824	   -461.54188541	    137.72449325	    179.99999979	   1803.58700311	     28.29837353	     10.80195351	    -18.77271350
      5.05000000	     37.19965434	      2.65868863	     10.09901948	    -72.17991285	    788.13039193	     -2.81430525	     16.61881321	     42.05789312	     45.00000000	     44.06668355	    -26.06284324	   3160.58568436	  -1732.66112097	     34.82105656	     10.31674918	   1809.40793199	     29.52262162	     18.04792681	     13.44607403	      5.48891912	    -45.00000000	    -45.00000000	     45.00000000	     -7.26306696	  -2791.80677300	   -461.75501418	    137.84393033	    179.99999979	   1803.29294020	     27.19826757	     10.89871213	    -18.58173157
      5.06000000	     37.09575721	      3.33523250	     10.65609002	    -68.85143489	    787.69332081	     -2.70580129	     15.95839598	     41.70411088	     45.00000000	     43.68220538	    -26.55140773	   3160.35961809	  -1732.82571268	     35.20718237	     10.51465752	   1809.13136645	     29.42901683	     17.87602650	     13.67510794	      6.25880503	    -45.00000000	    -45.00000000	     45.00000000	     -9.18858219	  -2792.22091245	   -461.31856250	    137.48577634	    179.99999979	   1803.21047884	     27.10064207	     10.64452215	    -18.48849980
      5.07000000	     37.27382237	      3.17567820	     10.17258725	    -65.93847697	    787.47521036	     -2.61988341	     16.04681884	     41.78649371	     45.00000000	     43.57424494	    -25.74222218	   3160.55488088	  -1732.94635918	     35.20743657	     10.68303377	   1808.70027291	     29.42144527	     17.71995963	     13.70262149	      6.12145940	    -45.00000000	    -45.00000000	     45.00000000	     -8.56919320	  -2792.57798808	   -461.53750035	    137.59235601	    179.99999979	   1803.08540011	     27.02676117	     10.57914376	    -18.45243209
      5.08000000	     37.36923770	      3.01851901	      9.66070847	    -63.42742786	    787.44095091	     -2.55941928	     15.85892068	     41.81514519	     45.00000000	     43.35994525	    -24.95364827	   3160.71459426	  -1733.02685674	     35.04001474	     10.83926617	   1808.55681009	     29.48068422	     17.63273157	     13.75073310	      5.92958135	    -45.00000000	    -45.00000000	     45.00000000	     -8.01342071	  -2792.90654473	   -461.60913139	    137.59140516	    179.99999979	   1802.91669975	     27.10854473	     10.51808558	    -18.40675918
